<svg width="14" height="12" viewBox="0 0 14 12" fill="none" xmlns="http://www.w3.org/2000/svg">
<path fill-rule="evenodd" clip-rule="evenodd" d="M6.99816 0.285726C7.74263 -0.334901 8.87915 0.113055 8.99945 1.07549C9.37027 4.04063 9.37027 7.03974 8.99945 10.0049C8.87915 10.9673 7.74263 11.4153 6.99816 10.7946L3.92616 8.23499C3.89438 8.20849 3.85431 8.19397 3.81293 8.19395H1.23842C0.909974 8.19395 0.594976 8.06347 0.362726 7.83122C0.130477 7.59897 0 7.28397 0 6.95552V4.12484C0 3.44123 0.554814 2.88642 1.23842 2.88642H3.81293C3.85431 2.8864 3.89438 2.87187 3.92616 2.84537L6.99745 0.285726H6.99816ZM7.94644 1.20711C7.94272 1.1778 7.9312 1.15002 7.91307 1.12668C7.89495 1.10334 7.87088 1.0853 7.84339 1.07445C7.81591 1.0636 7.78601 1.06034 7.75683 1.065C7.72765 1.06966 7.70026 1.08209 7.67752 1.10096L4.60623 3.66061C4.38358 3.84628 4.10284 3.94796 3.81293 3.94792H1.23842C1.1915 3.94792 1.1465 3.96656 1.11332 3.99974C1.08015 4.03292 1.06151 4.07792 1.06151 4.12484V6.95552C1.06151 7.05318 1.14077 7.13244 1.23842 7.13244H3.81293C4.10308 7.13244 4.38331 7.23364 4.60552 7.41976L7.67752 9.9794C7.70026 9.99828 7.72765 10.0107 7.75683 10.0154C7.78601 10.02 7.81591 10.0168 7.84339 10.0059C7.87088 9.99506 7.89495 9.97703 7.91307 9.95369C7.9312 9.93035 7.94272 9.90257 7.94644 9.87325C8.30593 6.99586 8.30593 4.0845 7.94644 1.20711Z" fill="white"/>
<path d="M10.5984 3.91395C10.6979 3.81456 10.8328 3.75873 10.9734 3.75873C11.1141 3.75873 11.249 3.81456 11.3485 3.91395L12.2246 4.78934L13.1 3.91395C13.2001 3.81722 13.3341 3.76366 13.4733 3.7648C13.6124 3.76594 13.7456 3.8217 13.844 3.92006C13.9425 4.01842 13.9984 4.15151 13.9996 4.29068C14.0009 4.42984 13.9475 4.56393 13.8508 4.66408L12.9755 5.54018L13.8508 6.41556C13.9476 6.51562 14.0011 6.64966 14 6.78883C13.9988 6.92799 13.9431 7.06114 13.8447 7.15959C13.7464 7.25804 13.6133 7.31392 13.4741 7.3152C13.3349 7.31647 13.2009 7.26304 13.1007 7.1664L12.2246 6.29101L11.3492 7.1664C11.2492 7.26313 11.1151 7.31669 10.976 7.31555C10.8368 7.31441 10.7037 7.25865 10.6052 7.16029C10.5067 7.06193 10.4509 6.92884 10.4496 6.78967C10.4483 6.65051 10.5017 6.51642 10.5984 6.41627L11.4738 5.54018L10.5984 4.66479C10.5491 4.6155 10.5099 4.55697 10.4832 4.49256C10.4565 4.42814 10.4428 4.3591 10.4428 4.28937C10.4428 4.21964 10.4565 4.15059 10.4832 4.08618C10.5099 4.02176 10.5491 3.96324 10.5984 3.91395Z" fill="white"/>
</svg>
