<svg width="12" height="12" viewBox="0 0 12 12" fill="none" xmlns="http://www.w3.org/2000/svg">
<path fill-rule="evenodd" clip-rule="evenodd" d="M9.2487 1.10457C9.12507 0.116209 7.95707 -0.344154 7.19198 0.293663L4.0349 2.9242C4.00224 2.95144 3.96106 2.96636 3.91853 2.96638H1.27272C0.935176 2.96638 0.611454 3.10047 0.372772 3.33915C0.13409 3.57784 0 3.90156 0 4.23911V7.14819C0 7.85073 0.57018 8.42091 1.27272 8.42091H3.91853C3.96106 8.42093 4.00224 8.43586 4.0349 8.46309L7.19125 11.0936C7.95707 11.7314 9.12579 11.2711 9.24943 10.282C9.62979 7.23474 9.62979 4.15256 9.24943 1.1053L9.2487 1.10457ZM7.89016 1.13148C7.91353 1.11208 7.94167 1.09931 7.97166 1.09452C8.00165 1.08973 8.03238 1.09308 8.06063 1.10423C8.08888 1.11538 8.11361 1.13392 8.13224 1.1579C8.15087 1.18189 8.16271 1.21044 8.16652 1.24057C8.53598 4.19765 8.53598 7.18964 8.16652 10.1467C8.16271 10.1769 8.15087 10.2054 8.13224 10.2294C8.11361 10.2534 8.08888 10.2719 8.06063 10.2831C8.03238 10.2942 8.00165 10.2976 7.97166 10.2928C7.94167 10.288 7.91353 10.2752 7.89016 10.2558L4.73381 7.62528C4.50499 7.43446 4.21648 7.32997 3.91853 7.33001H1.27272C1.2245 7.33001 1.17826 7.31085 1.14416 7.27675C1.11006 7.24266 1.09091 7.19641 1.09091 7.14819V4.23911C1.09091 4.19089 1.11006 4.14464 1.14416 4.11054C1.17826 4.07644 1.2245 4.05729 1.27272 4.05729H3.91853C4.21672 4.05729 4.50471 3.95256 4.73308 3.76202L7.89089 1.13148H7.89016Z" fill="white"/>
<path d="M11.4778 2.74674C11.4536 2.6788 11.4163 2.61631 11.3678 2.5629C11.3194 2.50949 11.2608 2.46622 11.1955 2.43559C11.1302 2.40495 11.0595 2.38757 10.9875 2.38444C10.9154 2.38131 10.8435 2.3925 10.7758 2.41735C10.7081 2.44221 10.646 2.48024 10.5931 2.52925C10.5402 2.57825 10.4976 2.63726 10.4676 2.70286C10.4377 2.76846 10.421 2.83935 10.4187 2.91142C10.4163 2.98349 10.4282 3.05532 10.4538 3.12274C10.7483 3.92347 10.9091 4.78892 10.9091 5.69365C10.9097 6.57072 10.7556 7.44104 10.4538 8.26455C10.4057 8.39993 10.4129 8.54882 10.474 8.67889C10.535 8.80895 10.6449 8.90969 10.7797 8.95921C10.9146 9.00873 11.0636 9.00304 11.1943 8.94338C11.325 8.88371 11.4269 8.77489 11.4778 8.64055C11.8251 7.69694 12.0019 6.69913 12 5.69365C12 4.65874 11.816 3.66602 11.4778 2.74674Z" fill="white"/>
</svg>
